<?xml version="1.0" standalone="yes"?>
<svg xmlns="http://www.w3.org/2000/svg" width="118" height="107">
<path style="fill:#000000; stroke:none;" d="M0 0L0 107L118 107L118 0L0 0z"/>
<path style="fill:#545454; stroke:none;" d="M48.6667 19.3333C48.2222 19.7778 49.2778 19.7222 49.3333 19.6667C49.7778 19.2222 48.7222 19.2778 48.6667 19.3333z"/>
<path style="fill:#838383; stroke:none;" d="M50 19C51.769 19.7789 53.0359 19.9124 55 20C53.231 19.2211 51.9641 19.0876 50 19z"/>
<path style="fill:#3d3d3d; stroke:none;" d="M55 19L56 20L55 19z"/>
<path style="fill:#373737; stroke:none;" d="M46 20L47 21L46 20z"/>
<path style="fill:#a4a4a4; stroke:none;" d="M47 20L48 21L47 20z"/>
<path style="fill:#f6f6f6; stroke:none;" d="M45 33C38.6315 35.1845 35.6666 40.4922 35 47C37.5165 44.0087 40.3773 37.2068 44.9576 37.2068C49.3344 37.2068 52.6624 45.2412 49.5887 48.2971C46.0481 51.8173 31.3541 54.9653 29.8279 47.9414C28.8432 43.4095 34.6945 38.375 37 35C27.947 39.6995 20.5997 53.0923 35 56C35.0682 63.6286 37.7778 69.4066 44 74C42.2614 69.8657 36.414 64.0411 38.4799 59.2284C40.6588 54.1527 50.7516 55.5833 51.3819 61.0548C51.8797 65.3757 47.5775 77.7962 41.9753 77.0787C35.8831 76.2984 34.2189 66.778 34 62C31.5432 67.8681 34.0292 78.8063 41.0154 80.5509C44.7588 81.4857 47.4675 79.0044 51 78.6682C53.6882 78.4124 56.311 79.7617 59 79.8665C63.0063 80.0226 67.0942 78.7574 71 78C66.0397 76.2209 59.7306 79.9076 55.3611 75.4861C51.5897 71.6698 57.3611 62.5321 62.2855 64.9707C66.9352 67.2733 77.6804 78.6096 69.9228 82.9715C66.0192 85.1663 60.9637 82.9061 57 82C61.3476 85.5083 72.0471 88.9629 75.821 82.7716C77.6314 79.8015 76.7437 76.1323 76 73C82.2337 70.8347 85.3421 65.3888 86 59C83.4818 61.9933 80.6227 68.7932 76.0394 68.7932C71.5042 68.7932 68.0357 60.8559 71.358 57.7029C74.9659 54.2789 89.6291 50.9599 91.1721 58.0586C91.9889 61.8169 87.8205 66.0467 86 69C95.3936 64.5799 98.1815 52.4597 86 50C85.9258 41.7005 82.5471 34.9483 75 31L75 29C83.446 27.625 86.0615 36.0649 87 43C89.3643 37.3126 86.6378 27.1105 79.9846 25.4491C76.2412 24.5143 73.5325 26.9956 70 27.3318C67.3118 27.5876 64.689 26.2383 62 26.1335C57.9937 25.9774 53.9058 27.2426 50 28C54.9603 29.7791 61.2694 26.0924 65.6389 30.5139C69.4103 34.3302 63.6389 43.4679 58.7145 41.0293C54.0648 38.7267 43.3196 27.3904 51.0772 23.0285C54.9808 20.8337 60.0363 23.0939 64 24C59.6524 20.4917 48.9529 17.0371 45.179 23.2284C43.3686 26.1985 44.2563 29.8677 45 33z"/>
<path style="fill:#c1c1c1; stroke:none;" d="M57 20L58 21L57 20z"/>
<path style="fill:#7d7d7d; stroke:none;" d="M58 20L59 21L58 20z"/>
<path style="fill:#474747; stroke:none;" d="M59 20L60 21L59 20z"/>
<path style="fill:#525252; stroke:none;" d="M45 21L46 22L45 21z"/>
<path style="fill:#c8c8c8; stroke:none;" d="M60 21L61 22L60 21z"/>
<path style="fill:#6d6d6d; stroke:none;" d="M61 21L62 22L61 21z"/>
<path style="fill:#3e3e3e; stroke:none;" d="M44 22L45 23L44 22z"/>
<path style="fill:#a2a2a2; stroke:none;" d="M50 22C51.2483 22.6848 51.5484 22.7488 53 23C51.7516 22.3152 51.4516 22.2512 50 22z"/>
<path style="fill:#616161; stroke:none;" d="M53 22C54.2483 22.6848 54.5484 22.7488 56 23C54.7516 22.3152 54.4516 22.2512 53 22z"/>
<path style="fill:#a6a6a6; stroke:none;" d="M56 22C57.2483 22.6848 57.5484 22.7488 59 23C57.7516 22.3152 57.4516 22.2512 56 22z"/>
<path style="fill:#c8c8c8; stroke:none;" d="M62 22L63 23L62 22z"/>
<path style="fill:#6d6d6d; stroke:none;" d="M63 22L64 23L63 22z"/>
<path style="fill:#a4a4a4; stroke:none;" d="M44 23L45 24L44 23z"/>
<path style="fill:#373737; stroke:none;" d="M49 23L48 25C49.2627 24.0287 49.3919 24.3063 49 23z"/>
<path style="fill:#000000; stroke:none;" d="M48 28L62 25C57.0718 22.0478 49.8986 21.7458 48 28z"/>
<path style="fill:#2b2b2b; stroke:none;" d="M59 23L60 24L59 23z"/>
<path style="fill:#7e7e7e; stroke:none;" d="M60 23L61 24L60 23z"/>
<path style="fill:#c5c5c5; stroke:none;" d="M61 23L62 24L61 23z"/>
<path style="fill:#c7c7c7; stroke:none;" d="M64.3333 23.6667C64.2778 23.7222 64.2222 24.7778 64.6667 24.3333C64.7222 24.2778 64.7778 23.2222 64.3333 23.6667z"/>
<path style="fill:#626262; stroke:none;" d="M65 23L66 24L65 23z"/>
<path style="fill:#2b2b2b; stroke:none;" d="M62.3333 24.6667C62.2778 24.7222 62.2222 25.7778 62.6667 25.3333C62.7222 25.2778 62.7778 24.2222 62.3333 24.6667z"/>
<path style="fill:#838383; stroke:none;" d="M63 24L64 25L63 24z"/>
<path style="fill:#f6f6f6; stroke:none;" d="M65 24L66 25L65 24z"/>
<path style="fill:#a4a4a4; stroke:none;" d="M66.3333 24.6667C66.2778 24.7222 66.2222 25.7778 66.6667 25.3333C66.7222 25.2778 66.7778 24.2222 66.3333 24.6667z"/>
<path style="fill:#565656; stroke:none;" d="M67 24L68 25L67 24z"/>
<path style="fill:#676767; stroke:none;" d="M76 24L77 25L76 24z"/>
<path style="fill:#bdbdbd; stroke:none;" d="M77.6667 24.3333C77.2222 24.7778 78.2778 24.7222 78.3333 24.6667C78.7778 24.2222 77.7222 24.2778 77.6667 24.3333z"/>
<path style="fill:#8f8f8f; stroke:none;" d="M79 24L80 25L79 24z"/>
<path style="fill:#5d5d5d; stroke:none;" d="M80 24L81 25L80 24z"/>
<path style="fill:#767676; stroke:none;" d="M43 25L43 29C43.7102 27.2405 43.7102 26.7595 43 25z"/>
<path style="fill:#aeaeae; stroke:none;" d="M47 25L47 28C47.6961 26.4463 47.6961 26.5537 47 25z"/>
<path style="fill:#444444; stroke:none;" d="M59 25C60.2483 25.6848 60.5484 25.7488 62 26C60.7517 25.3152 60.4516 25.2512 59 25z"/>
<path style="fill:#111111; stroke:none;" d="M63.6667 25.3333C63.2222 25.7778 64.2778 25.7222 64.3333 25.6667C64.7778 25.2222 63.7222 25.2778 63.6667 25.3333z"/>
<path style="fill:#535353; stroke:none;" d="M65 25L66 26L65 25z"/>
<path style="fill:#f6f6f6; stroke:none;" d="M67 25L68 26L67 25z"/>
<path style="fill:#666666; stroke:none;" d="M68 25L68 28C68.6961 26.4463 68.6961 26.5537 68 25z"/>
<path style="fill:#838383; stroke:none;" d="M74 25L75 26L74 25z"/>
<path style="fill:#c8c8c8; stroke:none;" d="M81 25L82 26L81 25z"/>
<path style="fill:#6d6d6d; stroke:none;" d="M82 25L83 26L82 25z"/>
<path style="fill:#4a4a4a; stroke:none;" d="M54 26L55 27L54 26z"/>
<path style="fill:#808080; stroke:none;" d="M55 26L56 27L55 26z"/>
<path style="fill:#d8d8d8; stroke:none;" d="M56.6667 26.3333C56.2222 26.7778 57.2778 26.7222 57.3333 26.6667C57.7778 26.2222 56.7222 26.2778 56.6667 26.3333z"/>
<path style="fill:#989898; stroke:none;" d="M65 26L66 27L65 26z"/>
<path style="fill:#686868; stroke:none;" d="M66 26L67 27L66 26z"/>
<path style="fill:#282828; stroke:none;" d="M67 26L68 27L67 26z"/>
<path style="fill:#969696; stroke:none;" d="M69 26L70 27L69 26z"/>
<path style="fill:#373737; stroke:none;" d="M72 26L73 27L72 26z"/>
<path style="fill:#838383; stroke:none;" d="M83 26L84 27L83 26z"/>
<path style="fill:#6b6b6b; stroke:none;" d="M51 27L52 28L51 27z"/>
<path style="fill:#b4b4b4; stroke:none;" d="M52 27L53 28L52 27z"/>
<path style="fill:#272727; stroke:none;" d="M69 27C69.5451 28.6351 69.3649 28.4549 71 29L71 27L69 27z"/>
<path style="fill:#575757; stroke:none;" d="M71 27L72 28L71 27z"/>
<path style="fill:#838383; stroke:none;" d="M84 27L85 28L84 27z"/>
<path style="fill:#575757; stroke:none;" d="M48 28L49 29L48 28z"/>
<path style="fill:#b6b6b6; stroke:none;" d="M49.3333 28.6667C49.2778 28.7222 49.2222 29.7778 49.6667 29.3333C49.7222 29.2778 49.7778 28.2222 49.3333 28.6667z"/>
<path style="fill:#7c7c7c; stroke:none;" d="M54 28C55.2483 28.6848 55.5484 28.7488 57 29C55.7516 28.3152 55.4516 28.2512 54 28z"/>
<path style="fill:#515151; stroke:none;" d="M57 28C58.2483 28.6848 58.5484 28.7488 60 29C58.7516 28.3152 58.4516 28.2512 57 28z"/>
<path style="fill:#767676; stroke:none;" d="M60 28C61.2483 28.6848 61.5484 28.7488 63 29C61.7516 28.3152 61.4516 28.2512 60 28z"/>
<path style="fill:#989898; stroke:none;" d="M69 28L70 29L69 28z"/>
<path style="fill:#acacac; stroke:none;" d="M76 28L77 29L76 28z"/>
<path style="fill:#595959; stroke:none;" d="M77 28L78 29L77 28z"/>
<path style="fill:#000000; stroke:none;" d="M76 29L76 31C79.7164 33.8916 82.5029 37.0104 85 41C86.7835 34.9682 82.2038 28.7739 76 29z"/>
<path style="fill:#373737; stroke:none;" d="M79 28L80 29L79 28z"/>
<path style="fill:#6a6a6a; stroke:none;" d="M80 28L81 29L80 28z"/>
<path style="fill:#3d3d3d; stroke:none;" d="M85 28L86 29L85 28z"/>
<path style="fill:#414141; stroke:none;" d="M43 29L44 30L43 29z"/>
<path style="fill:#838383; stroke:none;" d="M50 29L51 30L50 29z"/>
<path style="fill:#515151; stroke:none;" d="M51 29L52 30L51 29z"/>
<path style="fill:#000000; stroke:none;" d="M49 30C51.0054 33.9926 55.0282 40.3306 59.9853 40.9437C64.0687 41.4487 68.0507 34.9187 65.929 31.4336C63.1485 26.8663 53.1853 29.223 49 30z"/>
<path style="fill:#636363; stroke:none;" d="M64 29L65 30L64 29z"/>
<path style="fill:#b6b6b6; stroke:none;" d="M65 29L66 30L65 29z"/>
<path style="fill:#bdbdbd; stroke:none;" d="M75 29L76 30L75 29z"/>
<path style="fill:#474747; stroke:none;" d="M81 29L82 30L81 29z"/>
<path style="fill:#a7a7a7; stroke:none;" d="M85 29L86 30L85 29z"/>
<path style="fill:#bdbdbd; stroke:none;" d="M48 30L49 31L48 30z"/>
<path style="fill:#737373; stroke:none;" d="M66 30L67 31L66 30z"/>
<path style="fill:#929292; stroke:none;" d="M75 30L76 31L75 30z"/>
<path style="fill:#626262; stroke:none;" d="M82 30L83 31L82 30z"/>
<path style="fill:#484848; stroke:none;" d="M86 30L87 31L86 30z"/>
<path style="fill:#3f3f3f; stroke:none;" d="M42.6667 31.3333C42.2222 31.7778 43.2778 31.7222 43.3333 31.6667C43.7778 31.2222 42.7222 31.2778 42.6667 31.3333z"/>
<path style="fill:#767676; stroke:none;" d="M44.3333 31.6667C44.2778 31.7222 44.2222 32.7778 44.6667 32.3333C44.7222 32.2778 44.7778 31.2222 44.3333 31.6667z"/>
<path style="fill:#707070; stroke:none;" d="M49 31L50 32L49 31z"/>
<path style="fill:#a0a0a0; stroke:none;" d="M67 31L68 32L67 31z"/>
<path style="fill:#6b6b6b; stroke:none;" d="M74 31L75 32L74 31z"/>
<path style="fill:#b4b4b4; stroke:none;" d="M76 31L77 32L76 31z"/>
<path style="fill:#7d7d7d; stroke:none;" d="M83 31L84 32L83 31z"/>
<path style="fill:#929292; stroke:none;" d="M86 31L87 32L86 31z"/>
<path style="fill:#535353; stroke:none;" d="M39 32L40 33L39 32z"/>
<path style="fill:#a1a1a1; stroke:none;" d="M40.6667 32.3333C40.2222 32.7778 41.2778 32.7222 41.3333 32.6667C41.7778 32.2222 40.7222 32.2778 40.6667 32.3333z"/>
<path style="fill:#262626; stroke:none;" d="M42.6667 32.3333C42.2222 32.7778 43.2778 32.7222 43.3333 32.6667C43.7778 32.2222 42.7222 32.2778 42.6667 32.3333z"/>
<path style="fill:#4a4a4a; stroke:none;" d="M67 32L68 33L67 32z"/>
<path style="fill:#999999; stroke:none;" d="M73 32L74 33L73 32z"/>
<path style="fill:#000000; stroke:none;" d="M74 32C72.1582 35.5093 68.1296 43.4799 71.0316 47.2716C73.3748 50.3332 81.6073 50.3104 82.3812 45.8526C83.2307 40.9591 78.3595 35.8276 76 32L74 32z"/>
<path style="fill:#343434; stroke:none;" d="M78 32L79 33L78 32M37 33L38 34L37 33z"/>
<path style="fill:#9e9e9e; stroke:none;" d="M38 33L39 34L38 33z"/>
<path style="fill:#f6f6f6; stroke:none;" d="M39 33L40 34L39 33z"/>
<path style="fill:#646464; stroke:none;" d="M40 33C39.0143 34.4785 39 34.2032 39 36C40.2892 34.5574 40.4009 34.7663 40 33z"/>
<path style="fill:#2f2f2f; stroke:none;" d="M41 33L42 34L41 33z"/>
<path style="fill:#929292; stroke:none;" d="M42 33L43 34L42 33z"/>
<path style="fill:#9f9f9f; stroke:none;" d="M50 33L51 34L50 33z"/>
<path style="fill:#868686; stroke:none;" d="M67 33L68 34L67 33z"/>
<path style="fill:#464646; stroke:none;" d="M76 33L77 34L76 33z"/>
<path style="fill:#3b3b3b; stroke:none;" d="M79 33L80 34L79 33z"/>
<path style="fill:#919191; stroke:none;" d="M84 33L85 34L84 33z"/>
<path style="fill:#838383; stroke:none;" d="M87.3333 33.6667C87.2778 33.7222 87.2222 34.7778 87.6667 34.3333C87.7222 34.2778 87.7778 33.2222 87.3333 33.6667z"/>
<path style="fill:#7b7b7b; stroke:none;" d="M36 34L37 35L36 34z"/>
<path style="fill:#d0d0d0; stroke:none;" d="M37 34L37 36C38.6352 35.4549 38.4549 35.6352 39 34L37 34z"/>
<path style="fill:#878787; stroke:none;" d="M51 34L52 35L51 34z"/>
<path style="fill:#c9c9c9; stroke:none;" d="M67 34L68 35L67 34z"/>
<path style="fill:#707070; stroke:none;" d="M72 34L73 35L72 34z"/>
<path style="fill:#868686; stroke:none;" d="M77 34L78 35L77 34z"/>
<path style="fill:#373737; stroke:none;" d="M80 34L81 35L80 34z"/>
<path style="fill:#464646; stroke:none;" d="M84 34L85 35L84 34z"/>
<path style="fill:#3b3b3b; stroke:none;" d="M34 35L35 36L34 35z"/>
<path style="fill:#b8b8b8; stroke:none;" d="M35 35L36 36L35 35z"/>
<path style="fill:#262626; stroke:none;" d="M38 35L39 36L38 35z"/>
<path style="fill:#3b3b3b; stroke:none;" d="M52 35L53 36L52 35z"/>
<path style="fill:#353535; stroke:none;" d="M66 35L67 36L66 35z"/>
<path style="fill:#9b9b9b; stroke:none;" d="M78 35L79 36L78 35z"/>
<path style="fill:#373737; stroke:none;" d="M81 35L82 36L81 35z"/>
<path style="fill:#bbbbbb; stroke:none;" d="M85 35L86 36L85 35z"/>
<path style="fill:#b4b4b4; stroke:none;" d="M87 35L88 36L87 35z"/>
<path style="fill:#646464; stroke:none;" d="M33 36L34 37L33 36z"/>
<path style="fill:#9f9f9f; stroke:none;" d="M36 36L37 37L36 36z"/>
<path style="fill:#272727; stroke:none;" d="M37.3333 36.6667C37.2778 36.7222 37.2222 37.7778 37.6667 37.3333C37.7222 37.2778 37.7778 36.2222 37.3333 36.6667z"/>
<path style="fill:#717171; stroke:none;" d="M38 36L39 37L38 36z"/>
<path style="fill:#b0b0b0; stroke:none;" d="M43 36L44 37L43 36z"/>
<path style="fill:#4a4a4a; stroke:none;" d="M44.6667 36.3333C44.2222 36.7778 45.2778 36.7222 45.3333 36.6667C45.7778 36.2222 44.7222 36.2778 44.6667 36.3333z"/>
<path style="fill:#898989; stroke:none;" d="M46 36L47 37L46 36z"/>
<path style="fill:#aaaaaa; stroke:none;" d="M66 36L67 37L66 36z"/>
<path style="fill:#9f9f9f; stroke:none;" d="M71 36L72 37L71 36z"/>
<path style="fill:#bdbdbd; stroke:none;" d="M79 36L80 37L79 36z"/>
<path style="fill:#777777; stroke:none;" d="M85 36L86 37L85 36z"/>
<path style="fill:#8b8b8b; stroke:none;" d="M32 37L33 38L32 37z"/>
<path style="fill:#969696; stroke:none;" d="M35 37L36 38L35 37z"/>
<path style="fill:#000000; stroke:none;" d="M36 37C32.3388 41.3067 28.8356 45.2779 31 51L33 51C34.0977 46.7681 36.7424 41.2338 36 37z"/>
<path style="fill:#5d5d5d; stroke:none;" d="M42 37L43 38L42 37z"/>
<path style="fill:#000000; stroke:none;" d="M35 52C39.0504 51.6692 47.4708 51.1211 49.9321 47.348C52.5052 43.4033 47.7797 36.2423 43.1011 37.9167C38.1082 39.7036 36.0844 47.4347 35 52z"/>
<path style="fill:#787878; stroke:none;" d="M47 37L48 38L47 37z"/>
<path style="fill:#333333; stroke:none;" d="M54 37L55 38L54 37z"/>
<path style="fill:#2c2c2c; stroke:none;" d="M65 37L66 38L65 37z"/>
<path style="fill:#4a4a4a; stroke:none;" d="M71 37L72 38L71 37M79 37L80 38L79 37z"/>
<path style="fill:#a6a6a6; stroke:none;" d="M82 37L83 38L82 37z"/>
<path style="fill:#444444; stroke:none;" d="M85 37L86 38L85 37z"/>
<path style="fill:#a8a8a8; stroke:none;" d="M31 38L32 39L31 38z"/>
<path style="fill:#8e8e8e; stroke:none;" d="M34 38L35 39L34 38z"/>
<path style="fill:#8f8f8f; stroke:none;" d="M37 38L38 39L37 38z"/>
<path style="fill:#4a4a4a; stroke:none;" d="M41 38L42 39L41 38z"/>
<path style="fill:#acacac; stroke:none;" d="M48 38L49 39L48 38z"/>
<path style="fill:#4a4a4a; stroke:none;" d="M55 38L56 39L55 38z"/>
<path style="fill:#cbcbcb; stroke:none;" d="M65 38L66 39L65 38z"/>
<path style="fill:#838383; stroke:none;" d="M80 38L81 39L80 38z"/>
<path style="fill:#808080; stroke:none;" d="M83 38L84 39L83 38z"/>
<path style="fill:#606060; stroke:none;" d="M88.3333 38.6667C88.2778 38.7222 88.2223 39.7778 88.6667 39.3333C88.7222 39.2778 88.7778 38.2222 88.3333 38.6667z"/>
<path style="fill:#bdbdbd; stroke:none;" d="M30 39L31 40L30 39z"/>
<path style="fill:#868686; stroke:none;" d="M33 39L34 40L33 39z"/>
<path style="fill:#3c3c3c; stroke:none;" d="M36 39L37 40L36 39z"/>
<path style="fill:#646464; stroke:none;" d="M56 39L57 40L56 39z"/>
<path style="fill:#989898; stroke:none;" d="M64 39L65 40L64 39z"/>
<path style="fill:#aaaaaa; stroke:none;" d="M70 39L71 40L70 39z"/>
<path style="fill:#c8c8c8; stroke:none;" d="M81 39L82 40L81 39z"/>
<path style="fill:#565656; stroke:none;" d="M84 39L85 40L84 39z"/>
<path style="fill:#aaaaaa; stroke:none;" d="M86 39L87 40L86 39z"/>
<path style="fill:#9d9d9d; stroke:none;" d="M29 40L30 41L29 40z"/>
<path style="fill:#ababab; stroke:none;" d="M32 40L33 41L32 40z"/>
<path style="fill:#939393; stroke:none;" d="M36 40L37 41L36 40z"/>
<path style="fill:#505050; stroke:none;" d="M39 40L40 41L39 40z"/>
<path style="fill:#555555; stroke:none;" d="M49 40L50 41L49 40z"/>
<path style="fill:#8b8b8b; stroke:none;" d="M57 40L58 41L57 40z"/>
<path style="fill:#929292; stroke:none;" d="M63 40L64 41L63 40z"/>
<path style="fill:#7d7d7d; stroke:none;" d="M70 40L71 41L70 40z"/>
<path style="fill:#6d6d6d; stroke:none;" d="M81 40L82 41L81 40z"/>
<path style="fill:#b1b1b1; stroke:none;" d="M84 40L85 41L84 40z"/>
<path style="fill:#6f6f6f; stroke:none;" d="M86 40L87 41L86 40z"/>
<path style="fill:#838383; stroke:none;" d="M88 40L88 46C88.9511 43.7147 88.9511 42.2853 88 40M28 41L29 42L28 41z"/>
<path style="fill:#363636; stroke:none;" d="M32 41L33 42L32 41z"/>
<path style="fill:#303030; stroke:none;" d="M35 41L36 42L35 41z"/>
<path style="fill:#8f8f8f; stroke:none;" d="M38 41L39 42L38 41z"/>
<path style="fill:#b2b2b2; stroke:none;" d="M58 41L59 42L58 41z"/>
<path style="fill:#333333; stroke:none;" d="M59 41L60 42L59 41z"/>
<path style="fill:#a6a6a6; stroke:none;" d="M62 41L63 42L62 41z"/>
<path style="fill:#474747; stroke:none;" d="M70 41L71 42L70 41z"/>
<path style="fill:#c8c8c8; stroke:none;" d="M82 41L83 42L82 41z"/>
<path style="fill:#1a1a1a; stroke:none;" d="M85 41L86 44C86.6848 42.7516 86.7488 42.4516 87 41L85 41z"/>
<path style="fill:#6a6a6a; stroke:none;" d="M27 42L28 43L27 42z"/>
<path style="fill:#6c6c6c; stroke:none;" d="M31 42L32 43L31 42z"/>
<path style="fill:#878787; stroke:none;" d="M35 42L36 43L35 42z"/>
<path style="fill:#2c2c2c; stroke:none;" d="M38 42L39 43L38 42z"/>
<path style="fill:#838383; stroke:none;" d="M50 42L51 43L50 42z"/>
<path style="fill:#898989; stroke:none;" d="M60 42L61 43L60 42z"/>
<path style="fill:#767676; stroke:none;" d="M82 42L83 43L82 42z"/>
<path style="fill:#b1b1b1; stroke:none;" d="M85 42L86 43L85 42z"/>
<path style="fill:#bfbfbf; stroke:none;" d="M27 43L28 44L27 43z"/>
<path style="fill:#a1a1a1; stroke:none;" d="M30 43L31 44L30 43z"/>
<path style="fill:#989898; stroke:none;" d="M37 43L38 44L37 43z"/>
<path style="fill:#3f3f3f; stroke:none;" d="M50 43L51 44L50 43M82 43L83 44L82 43z"/>
<path style="fill:#cdcdcd; stroke:none;" d="M87 43L87 46C87.6961 44.4463 87.6961 44.5537 87 43z"/>
<path style="fill:#595959; stroke:none;" d="M26 44L27 45L26 44z"/>
<path style="fill:#474747; stroke:none;" d="M30 44L31 45L30 44z"/>
<path style="fill:#323232; stroke:none;" d="M34 44L35 45L34 44z"/>
<path style="fill:#474747; stroke:none;" d="M37 44L38 45L37 44z"/>
<path style="fill:#989898; stroke:none;" d="M69.3333 44.6667C69.2778 44.7222 69.2222 45.7778 69.6667 45.3333C69.7222 45.2778 69.7778 44.2222 69.3333 44.6667z"/>
<path style="fill:#4f4f4f; stroke:none;" d="M86 44L87 45L86 44z"/>
<path style="fill:#a8a8a8; stroke:none;" d="M26 45L27 46L26 45z"/>
<path style="fill:#bdbdbd; stroke:none;" d="M29 45L30 46L29 45z"/>
<path style="fill:#626262; stroke:none;" d="M34 45L35 46L34 45z"/>
<path style="fill:#b3b3b3; stroke:none;" d="M36 45L37 46L36 45z"/>
<path style="fill:#c8c8c8; stroke:none;" d="M51 45L52 46L51 45z"/>
<path style="fill:#d9d9d9; stroke:none;" d="M83.3333 45.6667C83.2778 45.7223 83.2222 46.7778 83.6667 46.3333C83.7222 46.2778 83.7778 45.2222 83.3333 45.6667z"/>
<path style="fill:#838383; stroke:none;" d="M86 45L86 48C86.6961 46.4463 86.6961 46.5537 86 45z"/>
<path style="fill:#676767; stroke:none;" d="M29 46L30 47L29 46z"/>
<path style="fill:#9e9e9e; stroke:none;" d="M34 46L35 47L34 46z"/>
<path style="fill:#656565; stroke:none;" d="M36 46L37 47L36 46z"/>
<path style="fill:#919191; stroke:none;" d="M51.3333 46.6667C51.2778 46.7222 51.2222 47.7778 51.6667 47.3333C51.7222 47.2778 51.7778 46.2222 51.3333 46.6667z"/>
<path style="fill:#6a6a6a; stroke:none;" d="M69.3333 46.6667C69.2778 46.7222 69.2222 47.7778 69.6667 47.3333C69.7222 47.2778 69.7778 46.2222 69.3333 46.6667z"/>
<path style="fill:#9e9e9e; stroke:none;" d="M87 46L87 50C87.7102 48.2405 87.7102 47.7595 87 46z"/>
<path style="fill:#323232; stroke:none;" d="M88.3333 46.6667C88.2778 46.7223 88.2222 47.7778 88.6667 47.3333C88.7222 47.2778 88.7778 46.2222 88.3333 46.6667z"/>
<path style="fill:#4a4a4a; stroke:none;" d="M25 47L25 50C25.6961 48.4463 25.6961 48.5537 25 47z"/>
<path style="fill:#d4d4d4; stroke:none;" d="M34.6667 47.3333C34.2222 47.7778 35.2778 47.7222 35.3333 47.6667C35.7778 47.2222 34.7222 47.2778 34.6667 47.3333z"/>
<path style="fill:#2f2f2f; stroke:none;" d="M82 47L83 48L82 47z"/>
<path style="fill:#444444; stroke:none;" d="M29 48L30 49L29 48z"/>
<path style="fill:#f6f6f6; stroke:none;" d="M34.3333 48.6667C34.2778 48.7222 34.2222 49.7778 34.6667 49.3333C34.7222 49.2778 34.7778 48.2222 34.3333 48.6667z"/>
<path style="fill:#868686; stroke:none;" d="M35 48L36 49L35 48z"/>
<path style="fill:#525252; stroke:none;" d="M49 48L50 49L49 48z"/>
<path style="fill:#a7a7a7; stroke:none;" d="M50 48L51 49L50 48z"/>
<path style="fill:#969696; stroke:none;" d="M70 48L71 49L70 48z"/>
<path style="fill:#575757; stroke:none;" d="M71 48L72 49L71 48z"/>
<path style="fill:#a8a8a8; stroke:none;" d="M82 48L83 49L82 48z"/>
<path style="fill:#5b5b5b; stroke:none;" d="M86.3333 48.6667C86.2777 48.7223 86.2222 49.7778 86.6667 49.3333C86.7222 49.2778 86.7778 48.2222 86.3333 48.6667z"/>
<path style="fill:#777777; stroke:none;" d="M29 49L30 50L29 49z"/>
<path style="fill:#656565; stroke:none;" d="M33.3333 49.6667C33.2778 49.7222 33.2222 50.7778 33.6667 50.3333C33.7222 50.2778 33.7778 49.2222 33.3333 49.6667z"/>
<path style="fill:#383838; stroke:none;" d="M35 49L36 50L35 49z"/>
<path style="fill:#656565; stroke:none;" d="M47 49L48 50L47 49z"/>
<path style="fill:#b9b9b9; stroke:none;" d="M48 49L49 50L48 49z"/>
<path style="fill:#c4c4c4; stroke:none;" d="M59 49L60 50L59 49z"/>
<path style="fill:#8e8e8e; stroke:none;" d="M60 49L61 50L60 49z"/>
<path style="fill:#989898; stroke:none;" d="M73 49L74 50L73 49z"/>
<path style="fill:#464646; stroke:none;" d="M74.6667 49.3333C74.2222 49.7778 75.2778 49.7222 75.3333 49.6667C75.7778 49.2222 74.7222 49.2778 74.6667 49.3333z"/>
<path style="fill:#515151; stroke:none;" d="M77 49C78.2484 49.6848 78.5484 49.7488 80 50C78.7516 49.3152 78.4516 49.2512 77 49z"/>
<path style="fill:#a4a4a4; stroke:none;" d="M80 49L81 50L80 49z"/>
<path style="fill:#6f6f6f; stroke:none;" d="M30 50L31 51L30 50z"/>
<path style="fill:#c5c5c5; stroke:none;" d="M34 50L35 51L34 50z"/>
<path style="fill:#2c2c2c; stroke:none;" d="M43 50L44 51L43 50z"/>
<path style="fill:#6f6f6f; stroke:none;" d="M44 50L45 51L44 50z"/>
<path style="fill:#a6a6a6; stroke:none;" d="M45 50L46 51L45 50z"/>
<path style="fill:#888888; stroke:none;" d="M58 50L59 51L58 50z"/>
<path style="fill:#000000; stroke:none;" d="M59.564 51.1713C57.5733 52.4706 59.2409 56.2614 61.436 54.8287C63.4267 53.5293 61.7591 49.7386 59.564 51.1713z"/>
<path style="fill:#7e7e7e; stroke:none;" d="M62 50L63 51L62 50z"/>
<path style="fill:#8f8f8f; stroke:none;" d="M89 50L90 51L89 50z"/>
<path style="fill:#525252; stroke:none;" d="M90 50L91 51L90 50z"/>
<path style="fill:#989898; stroke:none;" d="M26 51L27 52L26 51M31 51C32.506 51.683 33.3148 51.8259 35 52C33.494 51.317 32.6852 51.1741 31 51z"/>
<path style="fill:#767676; stroke:none;" d="M39.6667 51.3333C39.2222 51.7778 40.2778 51.7222 40.3333 51.6667C40.7778 51.2222 39.7222 51.2778 39.6667 51.3333z"/>
<path style="fill:#a6a6a6; stroke:none;" d="M41 51L42 52L41 51z"/>
<path style="fill:#4a4a4a; stroke:none;" d="M57 51L57 55C57.7102 53.2405 57.7102 52.7595 57 51M63 51L63 55C63.7102 53.2405 63.7102 52.7595 63 51z"/>
<path style="fill:#929292; stroke:none;" d="M91 51L92 52L91 51z"/>
<path style="fill:#bababa; stroke:none;" d="M27 52L28 53L27 52z"/>
<path style="fill:#cbcbcb; stroke:none;" d="M92 52L93 53L92 52z"/>
<path style="fill:#2b2b2b; stroke:none;" d="M93 52L94 53L93 52M27 53L28 54L27 53z"/>
<path style="fill:#cbcbcb; stroke:none;" d="M28 53L29 54L28 53z"/>
<path style="fill:#bababa; stroke:none;" d="M93 53L94 54L93 53z"/>
<path style="fill:#929292; stroke:none;" d="M29 54L30 55L29 54z"/>
<path style="fill:#a6a6a6; stroke:none;" d="M79 54L80 55L79 54z"/>
<path style="fill:#4e4e4e; stroke:none;" d="M80.6667 54.3333C80.2222 54.7778 81.2778 54.7222 81.3333 54.6667C81.7778 54.2222 80.7222 54.2778 80.6667 54.3333z"/>
<path style="fill:#000000; stroke:none;" d="M86 54C81.8848 54.3361 73.6029 54.889 71.0432 58.652C68.6379 62.1881 72.5817 69.2498 77 68.2485C82.5372 66.9935 84.8787 58.7209 86 54z"/>
<path style="fill:#989898; stroke:none;" d="M86 54C87.5061 54.683 88.3148 54.8259 90 55C88.494 54.317 87.6852 54.1741 86 54M94 54L95 55L94 54z"/>
<path style="fill:#525252; stroke:none;" d="M30 55L31 56L30 55z"/>
<path style="fill:#8f8f8f; stroke:none;" d="M31 55L32 56L31 55z"/>
<path style="fill:#6b6b6b; stroke:none;" d="M58 55L59 56L58 55z"/>
<path style="fill:#888888; stroke:none;" d="M62 55L63 56L62 55z"/>
<path style="fill:#a6a6a6; stroke:none;" d="M75 55L76 56L75 55z"/>
<path style="fill:#6f6f6f; stroke:none;" d="M76 55L77 56L76 55z"/>
<path style="fill:#2c2c2c; stroke:none;" d="M77 55L78 56L77 55z"/>
<path style="fill:#c5c5c5; stroke:none;" d="M86 55L87 56L86 55z"/>
<path style="fill:#3d3d3d; stroke:none;" d="M87.3333 55.6667C87.2778 55.7222 87.2222 56.7778 87.6667 56.3333C87.7222 56.2778 87.7778 55.2222 87.3333 55.6667z"/>
<path style="fill:#000000; stroke:none;" d="M88 55C86.6476 60.214 84.8046 64.9553 83 70C87.938 66.3546 92.371 61.2683 90 55L88 55z"/>
<path style="fill:#6f6f6f; stroke:none;" d="M90 55L91 56L90 55z"/>
<path style="fill:#838383; stroke:none;" d="M33 56L34 61C34.6513 58.7659 34.3182 57.9261 33 56z"/>
<path style="fill:#515151; stroke:none;" d="M34.3333 56.6667C34.2778 56.7222 34.2222 57.7778 34.6667 57.3333C34.7222 57.2778 34.7778 56.2222 34.3333 56.6667z"/>
<path style="fill:#a4a4a4; stroke:none;" d="M40 56L41 57L40 56z"/>
<path style="fill:#515151; stroke:none;" d="M41.6667 56.3333C41.2222 56.7778 42.2778 56.7222 42.3333 56.6667C42.7778 56.2222 41.7222 56.2778 41.6667 56.3333z"/>
<path style="fill:#000000; stroke:none;" d="M47 74C48.2015 71.7106 49.1644 69.5076 49.8418 66.9985C50.4891 64.6009 51.6621 60.9518 49.9684 58.7276C47.7604 55.8282 40.3191 55.4803 38.8356 59.3032C37.6119 62.4569 40.0469 66.5172 41.7955 68.9815C43.2828 71.0775 44.963 72.4962 47 74z"/>
<path style="fill:#6b6b6b; stroke:none;" d="M45.6667 56.3333C45.2222 56.7778 46.2778 56.7222 46.3333 56.6667C46.7778 56.2222 45.7222 56.2778 45.6667 56.3333z"/>
<path style="fill:#989898; stroke:none;" d="M47 56L48 57L47 56z"/>
<path style="fill:#bfbfbf; stroke:none;" d="M59 56L60 57L59 56z"/>
<path style="fill:#828282; stroke:none;" d="M60 56L61 57L60 56z"/>
<path style="fill:#c4c4c4; stroke:none;" d="M61 56L62 57L61 56z"/>
<path style="fill:#b9b9b9; stroke:none;" d="M72 56L73 57L72 56z"/>
<path style="fill:#656565; stroke:none;" d="M73 56L74 57L73 56z"/>
<path style="fill:#383838; stroke:none;" d="M85 56L86 57L85 56z"/>
<path style="fill:#f6f6f6; stroke:none;" d="M86.3333 56.6667C86.2777 56.7223 86.2222 57.7778 86.6667 57.3333C86.7222 57.2778 86.7778 56.2222 86.3333 56.6667z"/>
<path style="fill:#777777; stroke:none;" d="M91 56L92 57L91 56z"/>
<path style="fill:#4a4a4a; stroke:none;" d="M95 56L95 59C95.6961 57.4463 95.6961 57.5537 95 56z"/>
<path style="fill:#a8a8a8; stroke:none;" d="M38 57L39 58L38 57z"/>
<path style="fill:#575757; stroke:none;" d="M49 57L50 58L49 57z"/>
<path style="fill:#969696; stroke:none;" d="M50 57L51 58L50 57z"/>
<path style="fill:#a7a7a7; stroke:none;" d="M70 57L71 58L70 57z"/>
<path style="fill:#525252; stroke:none;" d="M71 57L72 58L71 57z"/>
<path style="fill:#868686; stroke:none;" d="M85 57L86 58L85 57z"/>
<path style="fill:#444444; stroke:none;" d="M91 57L92 58L91 57z"/>
<path style="fill:#525252; stroke:none;" d="M32.3333 58.6667C32.2778 58.7222 32.2222 59.7778 32.6667 59.3333C32.7222 59.2778 32.7778 58.2222 32.3333 58.6667z"/>
<path style="fill:#2f2f2f; stroke:none;" d="M38 58L39 59L38 58z"/>
<path style="fill:#797979; stroke:none;" d="M51 58L51 61C51.6961 59.4463 51.6961 59.5537 51 58z"/>
<path style="fill:#636363; stroke:none;" d="M69.3333 58.6667C69.2778 58.7222 69.2222 59.7778 69.6667 59.3333C69.7222 59.2778 69.7778 58.2222 69.3333 58.6667z"/>
<path style="fill:#d1d1d1; stroke:none;" d="M85.6667 58.3333C85.2222 58.7778 86.2778 58.7222 86.3333 58.6667C86.7778 58.2222 85.7222 58.2778 85.6667 58.3333z"/>
<path style="fill:#bdbdbd; stroke:none;" d="M33 59L33 62C33.6961 60.4463 33.6961 60.5537 33 59z"/>
<path style="fill:#c2c2c2; stroke:none;" d="M37.3333 59.6667C37.2778 59.7222 37.2222 60.7778 37.6667 60.3333C37.7222 60.2778 37.7778 59.2222 37.3333 59.6667z"/>
<path style="fill:#656565; stroke:none;" d="M84 59L85 60L84 59z"/>
<path style="fill:#9e9e9e; stroke:none;" d="M86 59L87 60L86 59z"/>
<path style="fill:#676767; stroke:none;" d="M91 59L92 60L91 59z"/>
<path style="fill:#838383; stroke:none;" d="M32 60L32 66C32.9511 63.7147 32.9511 62.2853 32 60z"/>
<path style="fill:#bbbbbb; stroke:none;" d="M69.3333 60.6667C69.2778 60.7222 69.2222 61.7778 69.6667 61.3333C69.7222 61.2778 69.7778 60.2222 69.3333 60.6667z"/>
<path style="fill:#b3b3b3; stroke:none;" d="M84 60L85 61L84 60z"/>
<path style="fill:#626262; stroke:none;" d="M86 60L87 61L86 60z"/>
<path style="fill:#bdbdbd; stroke:none;" d="M91 60L92 61L91 60z"/>
<path style="fill:#a8a8a8; stroke:none;" d="M94 60L95 61L94 60z"/>
<path style="fill:#4f4f4f; stroke:none;" d="M34 61L35 62L34 61z"/>
<path style="fill:#d7d7d7; stroke:none;" d="M51.3333 61.6667C51.2778 61.7222 51.2222 62.7778 51.6667 62.3333C51.7222 62.2778 51.7778 61.2222 51.3333 61.6667z"/>
<path style="fill:#565656; stroke:none;" d="M83 61L84 62L83 61z"/>
<path style="fill:#323232; stroke:none;" d="M86 61L87 62L86 61z"/>
<path style="fill:#474747; stroke:none;" d="M90 61L91 62L90 61z"/>
<path style="fill:#595959; stroke:none;" d="M94 61L95 62L94 61z"/>
<path style="fill:#000000; stroke:none;" d="M34.3333 62.6667C34.2778 62.7222 34.2222 63.7778 34.6667 63.3333C34.7222 63.2778 34.7778 62.2222 34.3333 62.6667z"/>
<path style="fill:#3f3f3f; stroke:none;" d="M38 62L39 63L38 62z"/>
<path style="fill:#b1b1b1; stroke:none;" d="M83 62L84 63L83 62z"/>
<path style="fill:#a1a1a1; stroke:none;" d="M90 62L91 63L90 62z"/>
<path style="fill:#bfbfbf; stroke:none;" d="M93 62L94 63L93 62z"/>
<path style="fill:#b1b1b1; stroke:none;" d="M35 63L36 64L35 63z"/>
<path style="fill:#767676; stroke:none;" d="M38 63L39 64L38 63z"/>
<path style="fill:#9e9e9e; stroke:none;" d="M60 63L61 64L60 63z"/>
<path style="fill:#5b5b5b; stroke:none;" d="M70 63L71 64L70 63z"/>
<path style="fill:#565656; stroke:none;" d="M82 63L83 64L82 63z"/>
<path style="fill:#878787; stroke:none;" d="M85 63L86 64L85 63z"/>
<path style="fill:#6c6c6c; stroke:none;" d="M89 63L90 64L89 63z"/>
<path style="fill:#6a6a6a; stroke:none;" d="M93 63L94 64L93 63z"/>
<path style="fill:#2b2b2b; stroke:none;" d="M34 64L35 65L34 64z"/>
<path style="fill:#565656; stroke:none;" d="M35 64L36 65L35 64z"/>
<path style="fill:#c8c8c8; stroke:none;" d="M38 64L39 65L38 64z"/>
<path style="fill:#474747; stroke:none;" d="M50 64L51 65L50 64z"/>
<path style="fill:#a6a6a6; stroke:none;" d="M58 64L59 65L58 64z"/>
<path style="fill:#000000; stroke:none;" d="M72 76C70.0388 72.0954 65.2811 64.4833 60.0401 65.0363C56.3462 65.426 52.9626 71.2867 55.0463 74.5664C56.8162 77.3521 61.1559 77.0392 64 76.9846C66.7237 76.9322 69.3295 76.4958 72 76z"/>
<path style="fill:#494949; stroke:none;" d="M61 64L62 65L61 64z"/>
<path style="fill:#c3c3c3; stroke:none;" d="M62 64L63 65L62 64z"/>
<path style="fill:#b6b6b6; stroke:none;" d="M70 64L71 65L70 64z"/>
<path style="fill:#bbbbbb; stroke:none;" d="M82 64L83 65L82 64z"/>
<path style="fill:#303030; stroke:none;" d="M85 64L86 65L85 64z"/>
<path style="fill:#363636; stroke:none;" d="M88 64L89 65L88 64z"/>
<path style="fill:#838383; stroke:none;" d="M92 64L93 65L92 64z"/>
<path style="fill:#5f5f5f; stroke:none;" d="M34 65L35 66L34 65z"/>
<path style="fill:#000000; stroke:none;" d="M35 65C35.5986 70.9663 37.616 76.0038 44 77C41.9288 72.4784 38.5511 68.4791 35 65z"/>
<path style="fill:#b1b1b1; stroke:none;" d="M36 65L37 66L36 65z"/>
<path style="fill:#6d6d6d; stroke:none;" d="M39 65L40 66L39 65z"/>
<path style="fill:#7d7d7d; stroke:none;" d="M50 65L51 66L50 65z"/>
<path style="fill:#929292; stroke:none;" d="M57 65L58 66L57 65z"/>
<path style="fill:#949494; stroke:none;" d="M63 65L64 66L63 65z"/>
<path style="fill:#393939; stroke:none;" d="M71 65L72 66L71 65z"/>
<path style="fill:#7c7c7c; stroke:none;" d="M81 65L82 66L81 65z"/>
<path style="fill:#939393; stroke:none;" d="M84 65L85 66L84 65z"/>
<path style="fill:#ababab; stroke:none;" d="M88 65L89 66L88 65z"/>
<path style="fill:#9d9d9d; stroke:none;" d="M91 65L92 66L91 65z"/>
<path style="fill:#434343; stroke:none;" d="M32.3333 66.6667C32.2778 66.7222 32.2222 67.7778 32.6667 67.3333C32.7222 67.2778 32.7778 66.2222 32.3333 66.6667z"/>
<path style="fill:#939393; stroke:none;" d="M34 66L35 67L34 66z"/>
<path style="fill:#565656; stroke:none;" d="M36 66L37 67L36 66z"/>
<path style="fill:#c8c8c8; stroke:none;" d="M39 66L40 67L39 66z"/>
<path style="fill:#aaaaaa; stroke:none;" d="M50 66L51 67L50 66z"/>
<path style="fill:#989898; stroke:none;" d="M56 66L57 67L56 66z"/>
<path style="fill:#656565; stroke:none;" d="M64 66L65 67L64 66z"/>
<path style="fill:#3c3c3c; stroke:none;" d="M80 66L81 67L80 66M84 66L85 67L84 66z"/>
<path style="fill:#868686; stroke:none;" d="M87 66L88 67L87 66z"/>
<path style="fill:#bdbdbd; stroke:none;" d="M90 66L91 67L90 66z"/>
<path style="fill:#bebebe; stroke:none;" d="M34 67L35 68L34 67z"/>
<path style="fill:#808080; stroke:none;" d="M37 67L38 68L37 67z"/>
<path style="fill:#838383; stroke:none;" d="M40 67L41 68L40 67z"/>
<path style="fill:#cacaca; stroke:none;" d="M55 67L56 68L55 67z"/>
<path style="fill:#4a4a4a; stroke:none;" d="M65 67L66 68L65 67z"/>
<path style="fill:#a7a7a7; stroke:none;" d="M72 67L73 68L72 67z"/>
<path style="fill:#4a4a4a; stroke:none;" d="M79 67L80 68L79 67z"/>
<path style="fill:#838383; stroke:none;" d="M83 67L84 68L83 67z"/>
<path style="fill:#8e8e8e; stroke:none;" d="M86 67L87 68L86 67z"/>
<path style="fill:#a8a8a8; stroke:none;" d="M89 67L90 68L89 67z"/>
<path style="fill:#a6a6a6; stroke:none;" d="M38 68L39 69L38 68z"/>
<path style="fill:#4a4a4a; stroke:none;" d="M41 68L42 69L41 68M49 68L50 69L49 68z"/>
<path style="fill:#2c2c2c; stroke:none;" d="M55 68L56 69L55 68z"/>
<path style="fill:#333333; stroke:none;" d="M66 68L67 69L66 68z"/>
<path style="fill:#787878; stroke:none;" d="M73 68L74 69L73 68z"/>
<path style="fill:#5c5c5c; stroke:none;" d="M78 68L79 69L78 68z"/>
<path style="fill:#bdbdbd; stroke:none;" d="M82 68L83 69L82 68z"/>
<path style="fill:#969696; stroke:none;" d="M85 68L86 69L85 68z"/>
<path style="fill:#8b8b8b; stroke:none;" d="M88 68L89 69L88 68z"/>
<path style="fill:#454545; stroke:none;" d="M35 69L36 70L35 69z"/>
<path style="fill:#bdbdbd; stroke:none;" d="M41 69L42 70L41 69z"/>
<path style="fill:#9f9f9f; stroke:none;" d="M49 69L50 70L49 69z"/>
<path style="fill:#a3a3a3; stroke:none;" d="M54 69L55 70L54 69z"/>
<path style="fill:#898989; stroke:none;" d="M74 69L75 70L74 69z"/>
<path style="fill:#4a4a4a; stroke:none;" d="M75.6667 69.3333C75.2222 69.7778 76.2778 69.7222 76.3333 69.6667C76.7778 69.2222 75.7222 69.2778 75.6667 69.3333z"/>
<path style="fill:#b0b0b0; stroke:none;" d="M77 69L78 70L77 69z"/>
<path style="fill:#2e2e2e; stroke:none;" d="M82.3333 69.6667C82.2778 69.7222 82.2222 70.7778 82.6667 70.3333C82.7222 70.2778 82.7778 69.2222 82.3333 69.6667z"/>
<path style="fill:#9f9f9f; stroke:none;" d="M84 69L85 70L84 69z"/>
<path style="fill:#d2d2d2; stroke:none;" d="M85.6667 69.3333C85.2222 69.7778 86.2778 69.7222 86.3333 69.6667C86.7778 69.2222 85.7222 69.2778 85.6667 69.3333z"/>
<path style="fill:#5c5c5c; stroke:none;" d="M87 69L88 70L87 69z"/>
<path style="fill:#b4b4b4; stroke:none;" d="M33 70L34 71L33 70z"/>
<path style="fill:#939393; stroke:none;" d="M35 70L36 71L35 70z"/>
<path style="fill:#373737; stroke:none;" d="M39 70L40 71L39 70z"/>
<path style="fill:#949494; stroke:none;" d="M42 70L43 71L42 70z"/>
<path style="fill:#3b3b3b; stroke:none;" d="M68 70L69 71L68 70z"/>
<path style="fill:#797979; stroke:none;" d="M81 70L80 74C81.1456 72.3595 81.393 71.924 81 70z"/>
<path style="fill:#c3c3c3; stroke:none;" d="M83 70L82 72L84 72C84 70.1468 84.2997 70.6498 83 70z"/>
<path style="fill:#f6f6f6; stroke:none;" d="M84 70L85 71L84 70z"/>
<path style="fill:#9e9e9e; stroke:none;" d="M85 70L86 71L85 70z"/>
<path style="fill:#5a5a5a; stroke:none;" d="M33.3333 71.6667C33.2778 71.7222 33.2222 72.7778 33.6667 72.3333C33.7222 72.2778 33.7778 71.2222 33.3333 71.6667z"/>
<path style="fill:#2b2b2b; stroke:none;" d="M36 71L37 72L36 71z"/>
<path style="fill:#373737; stroke:none;" d="M40 71L41 72L40 71z"/>
<path style="fill:#737373; stroke:none;" d="M43 71L44 72L43 71z"/>
<path style="fill:#707070; stroke:none;" d="M48 71L49 72L48 71z"/>
<path style="fill:#b7b7b7; stroke:none;" d="M53 71L54 72L53 71z"/>
<path style="fill:#878787; stroke:none;" d="M69 71L70 72L69 71z"/>
<path style="fill:#5d5d5d; stroke:none;" d="M84 71L85 72L84 71z"/>
<path style="fill:#7e7e7e; stroke:none;" d="M36 72L37 73L36 72z"/>
<path style="fill:#3b3b3b; stroke:none;" d="M41 72L42 73L41 72z"/>
<path style="fill:#525252; stroke:none;" d="M44 72L45 73L44 72z"/>
<path style="fill:#4a4a4a; stroke:none;" d="M53.3333 72.6667C53.2778 72.7222 53.2222 73.7778 53.6667 73.3333C53.7222 73.2778 53.7778 72.2222 53.3333 72.6667z"/>
<path style="fill:#9f9f9f; stroke:none;" d="M70 72L71 73L70 72z"/>
<path style="fill:#686868; stroke:none;" d="M78 72L78 75C79.0154 73.8606 79.3087 73.3884 80 72L78 72z"/>
<path style="fill:#dddddd; stroke:none;" d="M81 72L82 73L81 72z"/>
<path style="fill:#777777; stroke:none;" d="M82 72L83 73L82 72z"/>
<path style="fill:#3f3f3f; stroke:none;" d="M42 73L43 74L42 73z"/>
<path style="fill:#bdbdbd; stroke:none;" d="M44 73L45 77C45.553 74.9922 45.303 74.6676 44 73z"/>
<path style="fill:#373737; stroke:none;" d="M45 73L46 74L45 73z"/>
<path style="fill:#999999; stroke:none;" d="M47 73L48 74L47 73z"/>
<path style="fill:#858585; stroke:none;" d="M76 73L76 75L78 75C77.4549 73.3648 77.6352 73.5451 76 73z"/>
<path style="fill:#262626; stroke:none;" d="M77 73L78 74L77 73z"/>
<path style="fill:#cbcbcb; stroke:none;" d="M79 73L80 74L79 73z"/>
<path style="fill:#929292; stroke:none;" d="M34 74L35 75L34 74z"/>
<path style="fill:#7d7d7d; stroke:none;" d="M37 74L38 75L37 74z"/>
<path style="fill:#2c2c2c; stroke:none;" d="M43 74L44 75L43 74z"/>
<path style="fill:#6d6d6d; stroke:none;" d="M46 74L47 75L46 74z"/>
<path style="fill:#a0a0a0; stroke:none;" d="M53 74L54 75L53 74z"/>
<path style="fill:#707070; stroke:none;" d="M71 74L72 75L71 74z"/>
<path style="fill:#484848; stroke:none;" d="M34 75L35 76L34 75z"/>
<path style="fill:#626262; stroke:none;" d="M38 75L39 76L38 75z"/>
<path style="fill:#1b1b1b; stroke:none;" d="M44.3333 75.6667C44.2778 75.7222 44.2222 76.7778 44.6667 76.3333C44.7222 76.2778 44.7778 75.2222 44.3333 75.6667z"/>
<path style="fill:#6d6d6d; stroke:none;" d="M54 75L55 76L54 75z"/>
<path style="fill:#bdbdbd; stroke:none;" d="M72 75L73 76L72 75z"/>
<path style="fill:#a7a7a7; stroke:none;" d="M35 76L36 77L35 76z"/>
<path style="fill:#474747; stroke:none;" d="M39 76L40 77L39 76z"/>
<path style="fill:#a0a0a0; stroke:none;" d="M55 76L56 77L55 76z"/>
<path style="fill:#565656; stroke:none;" d="M56 76L57 77L56 76z"/>
<path style="fill:#535353; stroke:none;" d="M69 76L70 77L69 76z"/>
<path style="fill:#838383; stroke:none;" d="M70 76L71 77L70 76z"/>
<path style="fill:#9c9c9c; stroke:none;" d="M71.3333 76.6667C71.2778 76.7222 71.2222 77.7778 71.6667 77.3333C71.7222 77.2778 71.7778 76.2222 71.3333 76.6667z"/>
<path style="fill:#414141; stroke:none;" d="M77 76L78 77L77 76z"/>
<path style="fill:#3d3d3d; stroke:none;" d="M35 77L36 78L35 77z"/>
<path style="fill:#676767; stroke:none;" d="M40 77L41 78L40 77z"/>
<path style="fill:#2a2a2a; stroke:none;" d="M41.6667 77.3333C41.2222 77.7778 42.2778 77.7222 42.3333 77.6667C42.7778 77.2222 41.7222 77.2778 41.6667 77.3333z"/>
<path style="fill:#5d5d5d; stroke:none;" d="M43 77L44 78L43 77z"/>
<path style="fill:#acacac; stroke:none;" d="M44 77L45 78L44 77z"/>
<path style="fill:#515151; stroke:none;" d="M50 77C50.0313 78.8318 49.9205 78.5587 51 80C50.7488 78.5484 50.6848 78.2484 50 77z"/>
<path style="fill:#989898; stroke:none;" d="M51 77L52 78L51 77z"/>
<path style="fill:#767676; stroke:none;" d="M58 77C59.2483 77.6848 59.5484 77.7488 61 78C59.7516 77.3152 59.4516 77.2512 58 77z"/>
<path style="fill:#525252; stroke:none;" d="M61 77C62.2484 77.6848 62.5484 77.7488 64 78C62.7516 77.3152 62.4516 77.2512 61 77z"/>
<path style="fill:#808080; stroke:none;" d="M64 77C65.2484 77.6848 65.5484 77.7488 67 78C65.7517 77.3152 65.4516 77.2512 64 77z"/>
<path style="fill:#575757; stroke:none;" d="M72 77L73 78L72 77z"/>
<path style="fill:#747474; stroke:none;" d="M77 77L77 81C77.7102 79.2405 77.7102 78.7595 77 77z"/>
<path style="fill:#838383; stroke:none;" d="M36 78L37 79L36 78z"/>
<path style="fill:#000000; stroke:none;" d="M51 78L52 79L51 78z"/>
<path style="fill:#686868; stroke:none;" d="M52 78L52 81L55 80C53.8606 78.9846 53.3884 78.6913 52 78z"/>
<path style="fill:#b4b4b4; stroke:none;" d="M68 78L69 79L68 78z"/>
<path style="fill:#6b6b6b; stroke:none;" d="M69 78L70 79L69 78z"/>
<path style="fill:#000000; stroke:none;" d="M59 81C63.7527 84.2469 71.1457 84.1085 73 78L59 81z"/>
<path style="fill:#8f8f8f; stroke:none;" d="M73.3333 78.6667C73.2778 78.7222 73.2222 79.7778 73.6667 79.3333C73.7222 79.2778 73.7778 78.2222 73.3333 78.6667z"/>
<path style="fill:#838383; stroke:none;" d="M37 79L38 80L37 79z"/>
<path style="fill:#373737; stroke:none;" d="M48 79L49 80L48 79z"/>
<path style="fill:#bdbdbd; stroke:none;" d="M51 79L52 80L51 79z"/>
<path style="fill:#989898; stroke:none;" d="M55 79L56 80L55 79z"/>
<path style="fill:#bdbdbd; stroke:none;" d="M63.6667 79.3333C63.2222 79.7778 64.2778 79.7222 64.3333 79.6667C64.7778 79.2222 63.7222 79.2778 63.6667 79.3333z"/>
<path style="fill:#808080; stroke:none;" d="M65 79L66 80L65 79z"/>
<path style="fill:#4a4a4a; stroke:none;" d="M66 79L67 80L66 79z"/>
<path style="fill:#6d6d6d; stroke:none;" d="M38 80L39 81L38 80z"/>
<path style="fill:#c8c8c8; stroke:none;" d="M39 80L40 81L39 80z"/>
<path style="fill:#838383; stroke:none;" d="M46 80L47 81L46 80z"/>
<path style="fill:#e7e7e7; stroke:none;" d="M53 80L54 81L53 80z"/>
<path style="fill:#b7b7b7; stroke:none;" d="M54.3333 80.6667C54.2778 80.7222 54.2222 81.7778 54.6667 81.3333C54.7222 81.2778 54.7778 80.2222 54.3333 80.6667z"/>
<path style="fill:#535353; stroke:none;" d="M55 80L56 81L55 80z"/>
<path style="fill:#1a1a1a; stroke:none;" d="M56 80C57.1394 81.0154 57.6116 81.3087 59 82C58.0198 80.2167 58.0924 80.4057 56 80z"/>
<path style="fill:#444444; stroke:none;" d="M59 80C60.2484 80.6848 60.5484 80.7488 62 81C60.7517 80.3152 60.4516 80.2512 59 80z"/>
<path style="fill:#bdbdbd; stroke:none;" d="M73 80L74 81L73 80z"/>
<path style="fill:#5d5d5d; stroke:none;" d="M40 81L41 82L40 81z"/>
<path style="fill:#939393; stroke:none;" d="M41 81C42.2483 81.6848 42.5484 81.7488 44 82C42.7516 81.3152 42.4516 81.2512 41 81z"/>
<path style="fill:#676767; stroke:none;" d="M44 81L45 82L44 81z"/>
<path style="fill:#565656; stroke:none;" d="M53 81L54 82L53 81z"/>
<path style="fill:#f6f6f6; stroke:none;" d="M55 81L56 82L55 81z"/>
<path style="fill:#c3c3c3; stroke:none;" d="M56.3333 81.6667C56.2778 81.7222 56.2222 82.7778 56.6667 82.3333C56.7222 82.2778 56.7778 81.2222 56.3333 81.6667z"/>
<path style="fill:#838383; stroke:none;" d="M57 81L58 82L57 81z"/>
<path style="fill:#373737; stroke:none;" d="M72 81L73 82L72 81z"/>
<path style="fill:#626262; stroke:none;" d="M55 82L56 83L55 82z"/>
<path style="fill:#c5c5c5; stroke:none;" d="M59 82L60 83L59 82z"/>
<path style="fill:#7e7e7e; stroke:none;" d="M60 82L61 83L60 82z"/>
<path style="fill:#373737; stroke:none;" d="M71 82L72 83L71 82z"/>
<path style="fill:#a4a4a4; stroke:none;" d="M76 82L77 83L76 82z"/>
<path style="fill:#6d6d6d; stroke:none;" d="M57 83L58 84L57 83z"/>
<path style="fill:#c8c8c8; stroke:none;" d="M58 83L59 84L58 83z"/>
<path style="fill:#a6a6a6; stroke:none;" d="M62 83C63.2484 83.6848 63.5484 83.7488 65 84C63.7516 83.3152 63.4516 83.2512 62 83z"/>
<path style="fill:#616161; stroke:none;" d="M65 83C66.5061 83.683 67.3148 83.8259 69 84C67.494 83.317 66.6852 83.1741 65 83z"/>
<path style="fill:#c8c8c8; stroke:none;" d="M69.6667 83.3333C69.2222 83.7778 70.2778 83.7222 70.3333 83.6667C70.7778 83.2222 69.7222 83.2778 69.6667 83.3333z"/>
<path style="fill:#3e3e3e; stroke:none;" d="M76 83L77 84L76 83z"/>
<path style="fill:#6d6d6d; stroke:none;" d="M59 84L60 85L59 84z"/>
<path style="fill:#c8c8c8; stroke:none;" d="M60 84L61 85L60 84z"/>
<path style="fill:#525252; stroke:none;" d="M75 84L76 85L75 84z"/>
<path style="fill:#474747; stroke:none;" d="M61 85L62 86L61 85z"/>
<path style="fill:#7d7d7d; stroke:none;" d="M62 85L63 86L62 85z"/>
<path style="fill:#c1c1c1; stroke:none;" d="M63 85L64 86L63 85z"/>
<path style="fill:#a4a4a4; stroke:none;" d="M73 85L74 86L73 85z"/>
<path style="fill:#373737; stroke:none;" d="M74 85L75 86L74 85z"/>
<path style="fill:#606060; stroke:none;" d="M65.6667 86.3333C65.2222 86.7778 66.2778 86.7222 66.3333 86.6667C66.7778 86.2222 65.7222 86.2778 65.6667 86.3333z"/>
<path style="fill:#838383; stroke:none;" d="M67 86C68.5061 86.683 69.3148 86.8259 71 87C69.494 86.317 68.6852 86.1741 67 86z"/>
<path style="fill:#2e2e2e; stroke:none;" d="M71.6667 86.3333C71.2222 86.7778 72.2778 86.7222 72.3333 86.6667C72.7778 86.2222 71.7222 86.2778 71.6667 86.3333z"/>
</svg>
